:SAMPLES-PER-SECOND 30
:FULLY-SPECIFIED
:DEGREES
207
root  -10.3262 40.3557 6.00338 -168.596 -86.0454 168.253
RightUpLeg  -5.71242 -21.1016 -10.5135
RightLeg  15.9929 -10.1048 0.36099
RightFoot  -4.53614 -0.323411 4.91851
RightToes  -2.9104e-010 0 -3.6325e-017
Spine  15.4572 3.31764 16.1524
Spine1  18.4159 9.87977 -11.1833
HEad  -5.09678 -17.5683 0.407508
LeftShoulder1  9.37138 -14.9235 -44.2863
LeftArm  -6.702 4.07503 -28.1012
LeftForeArm  40.6156 -37.4513 -6.12408
LeftHand  -0.244104 0.0205437 5.32207
RightShoulder  4.22169 10.6075 23.7337
RightArm  -19.2237 55.5555 34.3671
RightForeArm  -15.7587 29.9287 7.32416
RightHand  -2.94065 9.95968 -22.3003
LeftUpLeg  -13.5281 7.21716 3.22958
LeftLeg  11.7049 -4.80448 -1.82125
LeftFoot  3.81174 0.177924 -1.51244
LeftToes  -1.62803e-010 -2.57217e-011 -2.5681e-011
208
root  -10.2585 40.3264 6.22954 -158.71 -87.4999 159.16
RightUpLeg  -6.60886 -22.8636 -10.6908
RightLeg  16.4009 -9.79707 0.0343326
RightFoot  -4.2947 -0.356694 5.31319
RightToes  -2.9104e-010 0 -3.6325e-017
Spine  16.9241 3.51553 17.2801
Spine1  18.5438 11.2926 -13.4062
HEad  -5.1937 -19.5108 2.65517
LeftShoulder1  9.30287 -15.1181 -43.4601
LeftArm  -7.5929 4.08155 -27.6271
LeftForeArm  40.1691 -37.5468 -6.17476
LeftHand  -0.244104 0.0205437 5.32207
RightShoulder  3.53951 9.85106 20.1055
RightArm  -27.5821 60.5233 27.6102
RightForeArm  -20.1095 25.8307 6.5142
RightHand  -3.70729 11.9927 -24.7061
LeftUpLeg  -14.7647 6.90415 2.45888
LeftLeg  11.6186 -5.67393 -2.15129
LeftFoot  4.32062 0.0831855 -0.794835
LeftToes  -1.62803e-010 -2.57217e-011 -2.5681e-011
209
root  -10.2138 40.3058 6.4572 -147.033 -88.3568 148.16
RightUpLeg  -7.34882 -23.9805 -10.7454
RightLeg  16.5517 -9.62365 -0.177025
RightFoot  -3.98622 -0.38875 5.6203
RightToes  -2.9104e-010 0 -3.6325e-017
Spine  18.3542 3.70717 18.2061
Spine1  18.8448 12.61 -15.2712
HEad  -5.48558 -20.5646 4.65874
LeftShoulder1  9.23559 -15.2638 -42.7705
LeftArm  -8.48756 4.04968 -27.1744
LeftForeArm  39.4033 -36.5547 -5.95681
LeftHand  -0.244104 0.0205437 5.32207
RightShoulder  2.91735 9.02556 16.6314
RightArm  -37.6266 63.9453 19.6039
RightForeArm  -23.9586 21.6744 5.90155
RightHand  -4.87132 14.7104 -27.9008
LeftUpLeg  -15.7598 6.65478 1.89468
LeftLeg  11.631 -6.11376 -2.34083
LeftFoot  4.61661 0.0165457 -0.317372
LeftToes  -1.62803e-010 -2.57217e-011 -2.5681e-011
210
root  -10.1939 40.2988 6.67636 -140.141 -88.8325 141.77
RightUpLeg  -7.76055 -24.1616 -10.7493
RightLeg  16.3597 -9.94422 -0.233309
RightFoot  -3.62433 -0.421091 5.87108
RightToes  -2.9104e-010 0 -3.6325e-017
Spine  19.6551 3.92792 18.8485
Spine1  19.367 13.7284 -16.4542
HEad  -5.72791 -20.8945 6.17219
LeftShoulder1  9.29259 -15.4465 -42.6083
LeftArm  -9.17524 4.00223 -26.454
LeftForeArm  38.3042 -34.6085 -5.52083
LeftHand  -0.244104 0.0205437 5.32207
RightShoulder  2.41071 8.36574 13.3808
RightArm  -49.118 65.9954 11.1192
RightForeArm  -25.977 17.6189 5.4794
RightHand  -6.20298 17.4369 -31.0955
LeftUpLeg  -16.4719 6.65917 1.56936
LeftLeg  11.7186 -6.42151 -2.48793
LeftFoot  4.74181 -0.0208897 -0.0557833
LeftToes  -1.62803e-010 -2.57217e-011 -2.5681e-011
211
root  -10.1964 40.3014 6.8835 -143.057 -89.1358 145.179
RightUpLeg  -8.00477 -23.6537 -10.7377
RightLeg  15.8804 -10.6979 -0.0969438
RightFoot  -3.22629 -0.453898 6.08215
RightToes  -2.9104e-010 0 -3.6325e-017
Spine  20.7069 4.1508 19.1599
Spine1  19.8515 14.5676 -17.0982
HEad  -5.75514 -20.7252 7.21684
LeftShoulder1  9.41584 -15.63 -42.7691
LeftArm  -9.43054 4.16206 -25.4975
LeftForeArm  36.8624 -32.2607 -5.02704
LeftHand  -0.244104 0.0205437 5.32207
RightShoulder  2.0659 7.96105 10.845
RightArm  -58.443 67.0506 3.79589
RightForeArm  -28.0815 14.6149 4.67668
RightHand  -7.21052 19.283 -33.2788
LeftUpLeg  -17.1059 6.81623 1.37996
LeftLeg  11.8298 -6.64808 -2.61006
LeftFoot  4.78161 -0.0610281 0.225966
LeftToes  -1.62803e-010 -2.57217e-011 -2.5681e-011
212
root  -10.2137 40.307 7.08227 -157.126 -89.2793 159.841
RightUpLeg  -8.30173 -22.9127 -10.6987
RightLeg  15.2762 -11.5472 0.168308
RightFoot  -2.82698 -0.485506 6.25624
RightToes  -2.9104e-010 0 -3.6325e-017
Spine  21.5192 4.31153 19.1589
Spine1  20.0419 15.1204 -17.5718
HEad  -5.71931 -20.1727 8.11387
LeftShoulder1  9.47737 -15.7228 -42.8452
LeftArm  -9.25763 4.65866 -24.6121
LeftForeArm  35.2742 -29.9532 -4.57593
LeftHand  -0.244104 0.0205437 5.32207
RightShoulder  1.87275 7.68966 9.4073
RightArm  -64.3246 67.672 -0.880004
RightForeArm  -30.3432 13.5915 4.08824
RightHand  -7.64894 20.019 -34.1939
LeftUpLeg  -17.7986 6.94877 1.23075
LeftLeg  11.9327 -6.67681 -2.67201
LeftFoot  4.77876 -0.114776 0.605754
LeftToes  -1.62803e-010 -2.57217e-011 -2.5681e-011
213
root  -10.2395 40.3129 7.27394 -174.974 -89.1925 178.298
RightUpLeg  -8.66936 -22.1951 -10.6408
RightLeg  14.6904 -12.2361 0.42363
RightFoot  -2.46338 -0.515996 6.42288
RightToes  -2.9104e-010 0 -3.6325e-017
Spine  22.1474 4.37661 18.8956
Spine1  19.9847 15.4186 -18.0126
HEad  -5.77915 -19.2585 9.06138
LeftShoulder1  9.45499 -15.7269 -42.7275
LeftArm  -8.7863 5.45128 -24.0144
LeftForeArm  33.8067 -27.8502 -4.18445
LeftHand  -0.244104 0.0205437 5.32207
RightShoulder  1.7912 7.49783 8.90437
RightArm  -67.4119 68.2102 -2.64225
RightForeArm  -32.0655 14.6851 4.18053
RightHand  -7.74278 20.1115 -34.4637
LeftUpLeg  -18.4678 7.14386 1.08607
LeftLeg  12.0338 -6.5969 -2.72142
LeftFoot  4.73322 -0.166256 0.974054
LeftToes  -1.62803e-010 -2.57217e-011 -2.5681e-011
214
root  -10.2688 40.3179 7.45511 176.373 -88.888 -172.517
RightUpLeg  -9.06636 -21.5807 -10.589
RightLeg  14.1987 -12.658 0.588083
RightFoot  -2.15235 -0.544615 6.58648
RightToes  -2.9104e-010 0 -3.6325e-017
Spine  22.5272 4.39549 18.4335
Spine1  19.9446 15.5156 -18.2795
HEad  -5.90005 -18.1413 9.88334
LeftShoulder1  9.41751 -15.7093 -42.5886
LeftArm  -8.0358 6.33325 -23.688
LeftForeArm  32.5536 -25.9722 -3.84396
LeftHand  -0.244104 0.0205437 5.32207
RightShoulder  1.79586 7.49553 8.95428
RightArm  -68.2609 68.6531 -2.27337
RightForeArm  -32.9659 17.2495 4.86205
RightHand  -7.68764 19.9393 -34.4542
LeftUpLeg  -19.0242 7.58312 0.9196
LeftLeg  12.1464 -6.60208 -2.83964
LeftFoot  4.64291 -0.202474 1.24147
LeftToes  -1.62803e-010 -2.57217e-011 -2.5681e-011
215
root  -10.2952 40.3206 7.62426 176.027 -88.4051 -171.717
RightUpLeg  -9.51162 -21.0988 -10.558
RightLeg  13.814 -12.7515 0.677777
RightFoot  -1.88353 -0.569258 6.71788
RightToes  -2.9104e-010 0 -3.6325e-017
Spine  22.6023 4.44165 17.8639
Spine1  20.0911 15.498 -18.2712
HEad  -6.03712 -17.0472 10.4188
LeftShoulder1  9.39827 -15.68 -42.5651
LeftArm  -7.10149 7.02359 -23.5888
LeftForeArm  31.6085 -24.3387 -3.55542
LeftHand  -0.244104 0.0205437 5.32207
RightShoulder  1.87726 7.71509 9.40676
RightArm  -66.8561 68.881 -0.608933
RightForeArm  -32.928 20.7164 5.8085
RightHand  -7.36526 19.3783 -33.8057
LeftUpLeg  -19.4615 8.16997 0.728002
LeftLeg  12.2328 -6.59711 -2.9982
LeftFoot  4.51868 -0.221695 1.3949
LeftToes  -1.62803e-010 -2.57217e-011 -2.5681e-011
216
root  -10.3136 40.3235 7.78329 178.831 -87.7394 -174.205
RightUpLeg  -9.91801 -20.6812 -10.5941
RightLeg  13.4939 -12.538 0.718346
RightFoot  -1.63763 -0.592667 6.8416
RightToes  -2.9104e-010 0 -3.6325e-017
Spine  22.5558 4.49897 17.2811
Spine1  20.3535 15.4319 -18.0963
HEad  -6.23179 -16.0697 10.7993
LeftShoulder1  9.36282 -15.5932 -42.5998
LeftArm  -6.40816 7.39285 -23.7907
LeftForeArm  31.2888 -23.0517 -3.37023
LeftHand  -0.244104 0.0205437 5.32207
RightShoulder  2.01936 8.02936 10.2721
RightArm  -63.0626 68.8206 2.04954
RightForeArm  -32.0463 24.9762 6.78405
RightHand  -6.72629 18.2835 -32.4056
LeftUpLeg  -19.6868 8.60296 0.553087
LeftLeg  12.2206 -6.2759 -3.09767
LeftFoot  4.3863 -0.2263 1.44295
LeftToes  -1.62803e-010 -2.57217e-011 -2.5681e-011
